<?xml version="1.0" standalone="no"?>
<!DOCTYPE svg PUBLIC "-//W3C//DTD SVG 20010904//EN"
 "http://www.w3.org/TR/2001/REC-SVG-20010904/DTD/svg10.dtd">
<svg version="1.0" xmlns="http://www.w3.org/2000/svg"
 width="738.000000pt" height="870.000000pt" viewBox="0 0 738.000000 870.000000"
 preserveAspectRatio="xMidYMid meet">
<metadata>
Created by potrace 1.16, written by Peter Selinger 2001-2019
</metadata>
<g transform="translate(0.000000,870.000000) scale(0.100000,-0.100000)"
fill="#000000" stroke="none">
<path d="M120 8671 c-6 -16 -18 -32 -25 -34 -16 -7 -25 -74 -34 -257 -5 -80
-10 -153 -13 -163 -2 -10 -1 -47 4 -84 5 -41 4 -72 -3 -84 -10 -19 4 -80 23
-103 11 -14 10 -126 -1 -126 -12 0 -2 -40 19 -70 10 -15 19 -53 23 -93 4 -64
28 -114 46 -102 10 6 2 -171 -10 -235 -6 -30 -17 -71 -25 -90 -18 -48 -44
-156 -44 -186 0 -13 -9 -38 -19 -55 -13 -21 -18 -42 -14 -59 3 -15 0 -31 -6
-34 -13 -9 -15 -66 -1 -66 5 0 12 -16 16 -35 3 -19 10 -37 14 -40 8 -5 -10
-69 -23 -81 -13 -13 -7 -41 12 -58 11 -10 21 -28 23 -40 2 -15 9 -20 26 -18
13 1 29 -4 35 -11 54 -57 56 -137 5 -158 -21 -9 -27 -16 -22 -28 10 -20 7 -93
-3 -100 -5 -3 -8 -19 -8 -34 -1 -21 5 -29 23 -34 24 -6 25 -7 19 -93 -6 -102
-30 -148 -89 -175 -25 -11 -38 -23 -38 -36 0 -10 -7 -19 -15 -19 -13 0 -15
-64 -15 -515 l0 -515 39 0 c22 0 41 5 43 11 3 9 14 8 42 -2 28 -10 36 -18 32
-32 -3 -12 3 -22 20 -29 22 -10 25 -17 22 -57 -2 -34 -7 -47 -20 -49 -13 -2
-18 3 -18 17 0 16 -6 21 -24 21 -13 0 -33 3 -43 6 -16 6 -16 5 2 -9 20 -16 19
-16 -7 -17 -18 0 -28 -5 -28 -15 0 -9 -12 -18 -30 -21 l-30 -6 0 -683 0 -683
37 -13 c21 -6 41 -16 44 -21 3 -5 39 -18 79 -28 l72 -19 84 25 c47 13 93 24
104 24 11 0 20 5 20 10 0 23 57 9 85 -20 35 -37 68 -38 101 -5 l25 25 24 -54
c24 -53 47 -72 77 -61 9 4 25 -5 39 -19 13 -14 30 -26 37 -26 14 0 16 -26 2
-35 -27 -17 16 -176 54 -197 23 -13 20 -48 -10 -91 -21 -31 -25 -48 -24 -95 5
-152 3 -201 -8 -214 -6 -8 -9 -18 -5 -22 4 -4 -3 -9 -15 -13 -12 -3 -22 -11
-22 -19 0 -20 -45 -64 -65 -64 -13 0 -15 5 -10 17 5 10 10 33 13 50 3 25 0 33
-11 33 -9 0 -25 13 -37 30 -20 28 -50 41 -50 21 0 -4 -25 -11 -57 -14 -31 -3
-59 -11 -63 -17 -4 -6 -6 -40 -5 -75 1 -36 -2 -65 -7 -65 -4 0 -22 -16 -39
-35 -18 -19 -40 -35 -51 -35 -10 0 -18 -4 -18 -9 0 -5 -9 -11 -20 -14 -35 -9
-36 -36 -2 -67 18 -16 40 -31 51 -35 10 -3 31 -17 45 -32 25 -24 27 -25 44 -9
10 9 31 16 45 16 15 0 27 5 27 10 0 6 9 10 21 10 19 0 19 1 4 17 -16 15 -16
17 3 27 10 6 17 16 15 22 -2 7 2 18 9 25 10 11 50 61 85 108 2 3 9 -1 15 -7 7
-7 22 -12 35 -12 16 0 23 -6 23 -20 0 -11 4 -28 9 -38 6 -9 13 -34 16 -55 3
-21 14 -43 25 -49 13 -9 17 -19 13 -39 -3 -15 0 -30 6 -33 6 -4 11 -2 11 3 0
17 30 13 36 -4 9 -22 -23 -66 -41 -59 -9 4 -15 0 -15 -9 0 -8 -7 -20 -15 -27
-10 -9 -13 -24 -8 -56 6 -46 6 -46 -42 -48 -11 -1 -21 -9 -23 -21 -2 -11 -11
-26 -20 -32 -19 -15 -109 -17 -114 -3 -2 7 -14 6 -34 -1 -26 -10 -30 -16 -26
-41 4 -25 1 -29 -14 -26 -14 2 -22 17 -29 53 -5 28 -13 55 -17 60 -6 10 -11
57 -9 83 1 7 12 17 26 22 24 9 36 40 15 40 -5 0 -10 8 -10 19 0 24 -25 45 -45
37 -8 -3 -15 -1 -15 4 0 6 -13 10 -28 10 -16 0 -49 6 -73 13 -33 10 -78 12
-169 7 -153 -8 -154 -7 -151 94 3 110 3 111 42 114 49 5 59 18 59 77 0 76 -29
98 -98 74 -27 -9 -30 -14 -21 -30 5 -11 9 -39 7 -62 -2 -35 -7 -43 -25 -45
-23 -3 -23 -5 -23 -178 0 -109 4 -174 10 -174 6 0 10 -9 10 -20 0 -22 35 -29
42 -8 3 9 10 8 22 -5 22 -22 23 -21 -36 -37 l-48 -13 0 -588 0 -589 33 0 c17
0 93 5 167 11 74 6 169 12 210 14 41 1 109 8 150 15 41 6 86 13 100 14 14 2
42 8 62 15 21 7 50 11 65 10 39 -4 133 9 228 31 44 10 107 20 140 21 33 1 81
5 108 10 82 15 298 39 387 43 47 2 100 7 119 12 27 5 33 4 29 -7 -3 -8 -12
-13 -22 -11 -11 2 -16 -4 -16 -22 0 -19 -6 -25 -27 -28 -22 -2 -27 -8 -25 -23
4 -21 30 -44 50 -45 8 0 22 10 31 22 14 17 27 21 66 20 27 -1 50 -4 53 -6 6
-7 86 24 93 36 5 8 16 8 39 -1 43 -14 75 -14 100 1 16 10 28 10 62 -2 49 -17
118 -15 118 3 0 8 15 12 39 12 22 0 35 -2 29 -6 -19 -12 61 -20 82 -9 12 6 55
12 96 12 57 0 74 3 74 14 0 10 12 14 40 14 36 0 40 -2 40 -25 0 -14 1 -25 3
-25 1 0 67 -5 147 -11 155 -11 187 -14 236 -25 18 -3 41 -1 53 5 15 9 32 9 62
1 22 -6 53 -13 69 -15 15 -2 37 -8 48 -14 17 -9 23 -23 38 -89 7 -33 15 -41
51 -51 21 -6 57 -11 80 -11 24 0 62 -4 85 -9 69 -16 141 -31 168 -36 78 -15
277 -25 517 -25 251 0 276 -2 325 -21 72 -27 83 -44 57 -80 -13 -18 -29 -29
-44 -29 -27 0 -42 -17 -28 -31 13 -13 89 -20 134 -13 21 3 52 19 70 36 39 34
73 50 93 42 7 -3 16 1 19 9 6 15 54 20 197 19 84 -1 110 -5 120 -22 5 -8 15
-10 26 -5 11 4 33 9 49 11 45 7 56 12 54 26 -4 35 -12 34 189 29 55 -1 65 -4
69 -21 6 -24 23 -27 23 -4 0 18 34 15 36 -4 1 -6 2 -16 3 -22 2 -14 194 -4
220 12 14 8 24 9 29 3 10 -14 50 -32 98 -45 23 -5 45 -17 48 -25 3 -9 18 -15
39 -15 19 0 57 -4 86 -10 43 -8 56 -7 83 8 18 10 35 27 38 38 5 19 41 26 56
11 14 -13 72 -7 90 10 17 17 88 20 109 3 17 -13 66 -18 93 -9 150 45 142 42
142 71 0 26 3 28 39 28 22 0 43 4 46 10 3 5 22 10 41 10 24 0 34 5 34 15 0 31
127 7 219 -41 l26 -14 -27 0 c-17 0 -28 -5 -28 -14 0 -19 -66 -25 -97 -9 -26
13 -50 10 -143 -19 -34 -11 -34 -11 -10 -21 14 -5 20 -11 14 -13 -6 -3 -9 -18
-6 -34 4 -28 6 -29 52 -27 26 1 59 -4 73 -12 22 -11 34 -12 66 -3 59 18 92 15
98 -8 6 -22 23 -27 23 -7 0 6 5 4 11 -6 17 -29 39 -3 32 38 -3 19 -3 42 1 51
6 16 8 15 21 -2 13 -17 14 -15 14 26 0 31 -3 39 -8 26 -7 -19 -8 -19 -13 2 -5
16 -14 22 -34 22 -26 0 -27 1 -12 16 8 9 31 17 49 17 33 2 34 1 40 -43 l6 -45
1 42 c1 23 6 44 11 47 16 10 21 -67 21 -316 0 -159 4 -248 10 -248 7 0 10
1457 10 4352 0 2393 -2 4349 -5 4347 -2 -3 -5 -673 -6 -1491 -1 -817 -5 -1492
-9 -1499 -7 -10 -11 -10 -25 1 -20 17 -36 2 -29 -28 4 -15 14 -22 30 -22 18 0
24 -7 29 -33 4 -19 5 -512 3 -1098 -3 -795 -7 -1071 -16 -1092 -16 -37 -36
-43 -60 -19 -25 25 -62 107 -62 136 0 49 -25 206 -33 206 -6 0 -8 -55 -6 -127
l4 -128 -27 -3 c-15 -2 -40 4 -57 12 -16 9 -44 16 -62 16 -17 0 -53 11 -80 24
-27 14 -72 29 -101 35 -29 5 -66 14 -81 20 -16 6 -38 11 -51 11 -12 0 -37 11
-55 24 -19 14 -40 22 -52 19 -32 -9 -168 8 -183 22 -15 15 -12 15 -142 15 -77
0 -93 3 -112 20 -21 20 -22 20 -41 1 -20 -20 -21 -20 -106 9 -29 10 -154 68
-195 91 -19 11 -65 35 -102 55 -36 20 -69 43 -73 52 -7 19 -8 40 -31 504 -9
179 -15 331 -12 338 5 15 59 -36 90 -85 14 -22 55 -72 92 -112 54 -58 84 -80
156 -116 115 -58 156 -65 191 -35 44 39 94 109 149 208 29 52 67 120 85 150
57 96 155 309 165 358 5 26 14 62 19 81 6 19 20 84 30 145 11 61 34 149 51
195 17 48 30 104 30 131 0 59 17 154 35 202 8 21 20 71 26 110 6 40 21 96 34
123 13 28 27 63 30 78 4 15 11 30 16 33 5 3 9 36 9 75 0 62 -3 74 -33 117 -54
75 -58 88 -84 231 -13 75 -33 183 -43 241 -25 137 -25 140 10 215 48 103 40
146 -36 191 -28 17 -50 38 -58 59 -15 36 -41 49 -95 50 -29 0 -36 4 -41 25 -4
17 -14 26 -30 29 -29 4 -40 17 -40 48 0 14 -10 28 -28 37 -15 8 -42 37 -60 65
-27 41 -36 70 -48 145 -16 111 -30 154 -45 139 -20 -20 11 -222 71 -472 60
-248 71 -293 115 -501 30 -142 55 -325 54 -388 -1 -35 -3 -41 -8 -22 -4 16
-21 32 -48 45 -34 16 -48 32 -71 80 -17 33 -33 71 -37 85 -4 14 -11 30 -14 35
-16 22 -91 323 -91 361 0 13 -4 26 -10 29 -5 3 -10 14 -10 24 0 10 -9 21 -20
24 -17 4 -19 11 -14 31 3 14 2 26 -2 26 -5 0 -9 40 -9 88 0 58 -5 94 -13 104
-7 9 -15 38 -18 65 -4 26 -14 67 -24 89 -25 59 -12 154 21 154 5 0 25 10 44
23 l35 22 0 153 c0 87 -4 162 -10 173 -7 12 -21 19 -38 19 -32 0 -45 -8 -59
-35 -19 -36 -45 -155 -38 -173 17 -42 22 -70 15 -83 -7 -11 -13 -10 -29 5 -19
17 -20 17 -32 -5 -15 -29 -27 -133 -35 -299 -5 -104 -3 -133 11 -170 9 -25 21
-69 25 -98 5 -29 16 -65 26 -80 28 -42 70 -179 83 -272 7 -47 21 -114 31 -150
10 -36 21 -110 24 -165 5 -92 29 -194 56 -246 16 -28 69 -59 104 -59 17 0 38
-9 50 -22 12 -13 34 -32 50 -43 23 -17 30 -35 46 -110 18 -87 29 -119 70 -197
24 -45 25 -71 3 -104 -14 -23 -22 -25 -54 -20 -46 7 -51 1 -73 -99 -18 -80
-41 -151 -75 -229 -9 -22 -26 -61 -36 -86 -23 -54 -103 -177 -136 -207 -13
-12 -36 -25 -51 -28 -23 -6 -33 -2 -58 25 -16 18 -30 38 -30 45 0 7 -7 19 -17
26 -25 21 -46 78 -53 147 -8 65 -29 102 -60 102 -18 0 -47 37 -73 93 -10 20
-22 37 -26 37 -4 0 -14 26 -21 58 -14 67 -43 135 -75 178 -13 16 -29 49 -35
72 -9 29 -19 42 -34 44 -13 2 -22 12 -24 27 -2 13 -12 26 -22 28 -11 3 -32 32
-50 69 -17 35 -35 64 -40 64 -5 0 -12 11 -16 25 -3 14 -12 25 -20 25 -7 0 -17
12 -20 28 -8 33 -52 82 -74 82 -9 0 -28 9 -41 21 -30 27 -154 99 -169 99 -19
0 -94 41 -137 76 -23 19 -47 34 -55 34 -26 0 -88 60 -88 86 0 41 65 154 88
154 7 0 15 18 18 40 7 44 19 58 60 69 15 4 30 14 34 22 4 7 13 25 20 39 40 73
68 139 74 171 7 41 -6 86 -31 105 -21 15 -21 54 2 169 35 175 -8 353 -124 515
-74 104 -132 138 -278 166 -100 19 -81 22 -295 -40 -25 -8 -66 -29 -90 -47
-46 -35 -133 -126 -152 -158 -6 -10 -24 -37 -40 -60 -34 -48 -45 -102 -45
-221 -1 -95 8 -124 27 -88 19 38 50 140 57 188 5 39 16 55 78 117 45 45 80 73
93 73 12 0 54 -13 92 -30 39 -16 77 -30 85 -30 8 0 20 -6 26 -14 7 -8 26 -18
42 -21 16 -4 29 -13 29 -20 0 -7 5 -15 12 -17 6 -2 8 -10 4 -16 -5 -8 -19 -10
-41 -6 -27 5 -35 2 -44 -14 -15 -28 -14 -32 8 -32 53 0 101 -41 101 -87 0 -19
-87 -55 -130 -55 -19 1 -48 5 -63 11 -36 14 -100 14 -168 0 -30 -6 -71 -14
-92 -19 -21 -4 -40 -9 -42 -12 -3 -3 -8 -30 -14 -89 -1 -4 -10 -9 -21 -12 -29
-7 -27 -61 3 -87 12 -12 31 -30 42 -40 26 -26 35 -25 35 1 0 16 5 20 18 16 87
-29 101 -31 144 -17 23 8 52 13 63 12 13 -1 28 10 43 33 20 31 25 34 43 24 19
-10 21 -18 17 -105 -3 -91 -4 -95 -33 -119 -26 -21 -39 -24 -95 -22 -56 2 -65
5 -68 22 -7 42 -10 45 -38 35 -21 -8 -31 -7 -45 6 -18 16 -19 16 -19 -4 0 -11
-14 -36 -30 -54 -16 -18 -30 -38 -30 -44 0 -6 -8 -19 -19 -28 -10 -9 -21 -31
-25 -48 -4 -21 -10 -29 -21 -24 -20 7 -20 -42 0 -91 26 -62 20 -80 -41 -137
-31 -28 -69 -69 -84 -91 -25 -35 -80 -98 -153 -173 -38 -40 -56 -54 -79 -66
-18 -9 -24 -23 -29 -60 -4 -37 -12 -55 -33 -72 -36 -32 -46 -30 -46 6 0 17 5
30 13 30 6 0 17 11 24 25 10 24 10 25 -15 19 -15 -3 -37 -7 -49 -10 -12 -2
-43 -24 -70 -49 -26 -25 -53 -45 -60 -45 -17 0 -43 -41 -43 -68 0 -13 -13 -58
-29 -100 -16 -42 -33 -90 -37 -107 -6 -19 -20 -35 -41 -45 -22 -10 -37 -28
-48 -56 -21 -55 -47 -78 -79 -70 -31 8 -33 3 -42 -157 -6 -124 -15 -140 -44
-79 -36 75 -61 28 -40 -75 7 -35 9 -67 6 -71 -4 -3 -27 -11 -51 -18 -52 -13
-68 -5 -190 90 -62 49 -77 57 -90 46 -32 -26 -12 -105 53 -210 23 -37 29 -85
11 -95 -5 -4 -15 -18 -20 -32 -8 -22 -11 -23 -26 -12 -68 57 -89 173 -86 485
2 232 11 320 48 434 8 25 19 106 23 181 8 119 12 140 33 170 30 43 40 50 61
43 28 -8 107 7 128 25 38 31 70 180 85 392 19 262 29 323 66 415 18 44 38 102
46 129 19 70 27 256 15 340 -6 39 -20 129 -31 200 -11 72 -25 143 -32 158 -13
28 -34 36 -42 15 -4 -10 -7 -10 -17 -1 -11 10 -18 7 -37 -14 -19 -20 -26 -41
-30 -93 l-6 -68 40 -20 c67 -34 68 -38 49 -160 -10 -59 -28 -179 -42 -267 -14
-88 -29 -187 -34 -220 -6 -33 -15 -98 -21 -145 -6 -47 -21 -130 -34 -185 -13
-55 -26 -120 -30 -144 -12 -70 -33 -114 -54 -108 -12 3 -24 -5 -35 -24 -30
-51 -42 -35 -49 67 -5 61 16 241 39 339 8 38 20 102 24 140 37 303 55 430 91
648 6 31 7 62 4 67 -14 23 -24 7 -30 -47 -8 -71 -88 -246 -122 -268 -13 -9
-23 -25 -23 -39 0 -18 -7 -25 -30 -30 -20 -4 -34 -14 -40 -31 -5 -14 -16 -25
-24 -25 -18 0 -28 -25 -20 -54 4 -18 -3 -28 -36 -50 -40 -26 -41 -29 -35 -66
9 -52 -23 -99 -62 -92 -24 5 -25 3 -19 -29 3 -19 9 -76 12 -127 6 -75 10 -92
22 -90 37 7 39 -115 3 -150 -11 -10 -21 -39 -25 -69 l-6 -51 60 -43 c44 -31
60 -48 60 -65 0 -16 -6 -24 -18 -24 -9 0 -22 -10 -27 -22 -10 -23 -17 -24 -67
-12 -23 5 -30 1 -46 -26 -11 -17 -22 -48 -26 -69 -10 -66 -76 -106 -123 -76
-35 23 -30 74 16 169 40 84 85 196 94 232 2 12 -1 30 -7 40 -7 12 -11 83 -11
194 0 135 -3 182 -15 205 -20 41 -40 61 -48 48 -15 -21 -40 -21 -60 0 -14 15
-24 46 -31 97 -6 41 -15 89 -20 106 -5 18 -7 91 -4 163 5 132 -1 201 -16 201
-12 0 -21 -53 -27 -160 -6 -98 -12 -113 -53 -125 -23 -7 -24 -7 -17 48 13 99
9 226 -7 250 -8 12 -18 37 -21 55 -4 17 -12 35 -18 38 -5 3 -19 27 -30 53 -10
25 -28 55 -38 66 -11 11 -30 39 -42 62 -13 22 -50 76 -84 120 -63 82 -151 212
-199 298 -16 28 -37 60 -48 73 l-20 22 -363 0 c-247 0 -363 -3 -366 -11 -2 -7
-12 -7 -31 0 -18 7 -156 11 -381 11 l-354 0 -12 -29z m4352 -1907 c75 -52 55
-76 -62 -72 -45 2 -85 7 -89 13 -5 5 -11 27 -15 47 -5 30 -3 39 14 51 18 13
27 13 68 1 25 -8 63 -26 84 -40z m-317 -193 c5 -17 4 -22 -6 -19 -8 3 -15 18
-17 34 -4 33 11 24 23 -15z m-1692 -555 c6 -15 -7 -120 -18 -148 -4 -10 -16
-18 -26 -18 -14 0 -19 7 -19 30 0 16 4 39 9 52 6 13 12 40 16 61 6 37 28 50
38 23z m2212 -207 c8 -12 -40 -89 -55 -89 -15 0 -12 37 5 70 16 30 38 39 50
19z m592 -561 c16 -13 42 -37 56 -54 15 -17 40 -37 56 -44 30 -12 48 -37 157
-215 46 -76 49 -84 52 -160 1 -44 9 -201 17 -348 8 -147 15 -315 15 -372 0
-123 0 -123 -95 -70 -78 44 -224 115 -237 115 -6 0 -27 15 -47 33 -29 26 -52
36 -109 47 -40 7 -75 16 -77 19 -4 7 -10 141 -25 545 l-10 280 24 25 c13 14
52 70 86 124 70 107 83 114 137 75z m-2032 -221 c12 -46 4 -364 -9 -385 -10
-17 -41 -15 -56 3 -10 12 -16 13 -24 4 -8 -8 -6 -14 9 -23 36 -21 86 -80 83
-100 -3 -22 -16 -30 -75 -45 -26 -7 -43 -18 -43 -26 0 -18 -5 -19 -90 -16 -60
2 -68 0 -97 -28 -39 -36 -46 -81 -12 -81 12 0 23 8 26 19 3 14 17 21 50 26 66
10 71 -2 34 -77 -17 -35 -39 -98 -50 -140 -10 -43 -29 -94 -42 -114 l-22 -36
22 -137 c20 -117 30 -150 72 -238 29 -60 57 -104 67 -107 10 -4 52 -38 93 -78
41 -39 106 -98 146 -132 39 -34 81 -73 93 -88 21 -28 74 -56 230 -124 47 -20
105 -51 130 -69 25 -18 81 -51 125 -74 78 -40 83 -41 178 -41 99 0 137 -9 137
-34 0 -22 27 -39 78 -48 96 -17 176 -36 159 -37 -10 -1 -16 -5 -12 -10 3 -6
-3 -15 -13 -20 -11 -6 -25 -24 -32 -40 -7 -17 -20 -33 -29 -36 -9 -3 -26 -20
-38 -39 -18 -27 -29 -34 -68 -39 -48 -7 -166 -57 -197 -84 -9 -9 -31 -16 -47
-18 -38 -3 -57 -18 -66 -52 -3 -15 -15 -39 -26 -54 -10 -15 -19 -41 -19 -57 0
-37 -15 -78 -35 -98 -8 -9 -15 -26 -15 -38 0 -13 -14 -56 -31 -97 -34 -83 -59
-168 -59 -204 0 -13 -11 -45 -25 -71 -14 -26 -25 -53 -25 -60 0 -16 -19 -29
-28 -19 -4 3 -8 56 -9 116 -2 108 -7 134 -22 124 -12 -7 -28 -277 -32 -537 0
-24 -38 -32 -102 -23 -47 6 -232 14 -282 12 -11 0 -55 0 -97 0 -95 1 -76 2
-282 -2 -92 -2 -178 0 -191 5 -22 8 -23 11 -18 114 5 110 -9 148 -20 56 -3
-28 -14 -75 -24 -106 -20 -61 -30 -67 -109 -62 l-49 3 3 245 c1 135 7 452 13
705 17 796 30 1054 59 1113 11 22 26 76 34 119 8 43 24 103 36 133 33 84 50
142 50 171 0 14 3 29 7 33 16 16 34 92 54 231 24 171 53 252 108 303 87 80
112 109 167 190 32 48 69 104 83 125 24 35 67 101 122 185 25 37 46 41 54 9z
m-2902 -28 c15 -9 17 -21 14 -87 -2 -46 -8 -77 -15 -80 -7 -2 -12 6 -12 20 0
15 -10 29 -27 40 -24 14 -27 21 -24 66 2 41 -1 51 -16 56 -10 3 0 3 22 0 22
-3 48 -10 58 -15z m4661 -241 c10 -284 9 -549 -2 -560 -6 -6 -19 -7 -31 -3
-16 5 -21 15 -21 41 0 20 -5 44 -10 55 -15 27 -63 49 -108 49 -50 0 -82 29
-81 73 1 77 16 136 40 165 19 21 26 43 27 77 2 36 8 54 27 73 19 18 25 35 25
66 0 36 6 47 53 93 28 29 57 53 63 53 7 0 13 -60 18 -182z m-4944 162 c0 -5
-4 -10 -10 -10 -5 0 -10 5 -10 10 0 6 5 10 10 10 6 0 10 -4 10 -10z m285 -129
c3 -5 1 -12 -5 -16 -5 -3 -10 1 -10 9 0 18 6 21 15 7z m115 -221 c0 -5 -2 -10
-4 -10 -3 0 -8 5 -11 10 -3 6 -1 10 4 10 6 0 11 -4 11 -10z m20 -62 c0 -18 -5
-28 -15 -28 -10 0 -15 10 -15 28 0 19 5 29 15 29 10 0 15 -10 15 -29z m90 -98
c0 -29 -4 -40 -15 -40 -16 0 -20 35 -9 64 11 29 24 16 24 -24z m-93 -36 c-3
-3 -12 -4 -19 -1 -8 3 -5 6 6 6 11 1 17 -2 13 -5z m250 0 c-3 -3 -12 -4 -19
-1 -8 3 -5 6 6 6 11 1 17 -2 13 -5z m726 -1248 c15 -39 -27 -81 -74 -74 -25 3
-33 35 -16 71 10 22 82 24 90 3z m953 -396 c-3 -74 -8 -241 -12 -370 -3 -129
-9 -237 -14 -240 -4 -3 -8 -39 -7 -80 1 -136 -10 -444 -18 -487 -8 -47 -27
-68 -50 -59 -13 5 -15 16 -10 58 4 29 9 197 11 373 3 176 7 397 9 490 2 94 5
217 5 275 2 111 22 200 45 200 8 0 17 16 21 38 l8 37 9 -50 c4 -27 6 -111 3
-185z m-936 185 c10 -12 9 -16 -3 -21 -13 -5 -14 -10 -5 -24 9 -14 7 -29 -10
-70 -13 -31 -22 -75 -23 -109 -1 -94 -12 -145 -31 -149 -22 -4 -34 24 -43 104
-4 32 -11 76 -16 97 -10 39 5 115 26 129 6 5 5 8 -4 8 -9 0 -3 10 13 25 30 28
77 33 96 10z m-466 -21 c10 -27 7 -42 -18 -69 -20 -22 -25 -23 -36 -10 -13 16
-7 60 12 82 14 18 35 16 42 -3z m4876 -24 c0 -5 -5 -10 -11 -10 -7 0 -21 -11
-33 -24 -23 -27 -70 -43 -80 -28 -10 16 33 60 62 65 50 8 62 7 62 -3z m-3595
-49 c3 -10 1 -30 -5 -45 -5 -15 -12 -113 -15 -219 -6 -210 -13 -366 -22 -467
-8 -81 -7 -91 1 -220 8 -109 -5 -364 -18 -377 -4 -5 -14 1 -22 11 -8 11 -15
17 -15 13 -1 -4 -2 -11 -3 -16 0 -6 -7 -16 -15 -23 -11 -11 -13 -5 -7 36 3 27
10 54 15 60 5 6 8 94 6 196 -1 107 2 194 8 208 7 15 7 30 -2 50 -20 43 -23
125 -11 313 16 270 30 403 43 415 4 4 7 16 7 26 0 48 42 78 55 39z m-758 -115
c1 -32 -2 -46 -9 -44 -15 5 -31 65 -24 85 12 30 31 6 33 -41z m-112 -433 c5
-16 8 -72 8 -127 -1 -103 -6 -117 -50 -131 -21 -6 -23 -3 -23 32 0 51 19 115
38 129 14 10 13 15 -7 47 -25 41 -21 77 9 77 11 0 21 -10 25 -27z m-1310 -242
c3 -5 1 -12 -5 -16 -5 -3 -10 -14 -10 -25 0 -15 -18 -30 -36 -30 -2 0 -1 15 3
33 8 40 33 61 48 38z m1535 -631 c0 -5 -9 -10 -21 -10 -11 0 -17 5 -14 10 3 6
13 10 21 10 8 0 14 -4 14 -10z m-95 -10 c-28 -12 -78 -12 -70 0 3 6 25 10 48
9 33 0 38 -2 22 -9z m-135 -10 c10 -7 -14 -9 -75 -8 -70 1 -81 2 -50 8 60 11
108 11 125 0z m-275 -10 l30 -7 -35 -7 c-19 -4 -71 -6 -115 -4 l-80 3 45 11
c51 13 111 15 155 4z m1227 0 c22 0 31 -32 23 -80 -6 -38 -25 -56 -25 -25 0
20 -10 19 -25 -2 -14 -19 -35 -10 -35 15 0 9 -6 29 -14 44 -11 20 -11 28 -3
32 7 2 -3 5 -20 5 -23 1 -33 -4 -33 -14 0 -8 -5 -15 -11 -15 -6 0 -9 7 -5 15
4 11 -2 15 -22 17 -15 1 5 5 43 8 39 4 79 5 90 4 11 -2 28 -4 37 -4z m253 2
c9 -6 12 -25 6 -34 -1 -2 -4 -34 -7 -71 -3 -45 -1 -74 7 -83 9 -11 8 -14 -4
-14 -9 0 -19 18 -27 48 -8 28 -15 40 -17 30 -3 -11 -14 -18 -28 -18 -27 0 -35
-16 -28 -54 4 -21 2 -27 -8 -24 -9 3 -14 24 -16 64 -1 32 -4 75 -7 95 -4 23
-1 40 7 47 21 18 104 27 122 14z m179 -14 c11 -41 6 -59 -19 -82 -25 -23 -25
-24 -9 -57 42 -83 42 -79 7 -79 -61 0 -104 12 -102 29 1 9 -1 55 -5 103 -5 47
-5 91 -2 97 4 6 33 11 65 11 52 0 59 -2 65 -22z m807 0 c4 -7 4 -19 -1 -27 -4
-8 -4 -25 1 -38 7 -19 2 -29 -29 -60 -21 -21 -47 -57 -58 -81 l-19 -43 -110 7
c-60 3 -134 12 -163 20 -34 8 -77 11 -120 7 l-66 -6 18 27 c18 28 18 28 -11
58 l-28 29 -22 -28 c-13 -15 -23 -38 -23 -49 0 -28 -17 -34 -89 -34 -63 0 -79
7 -56 24 11 8 17 35 19 91 2 44 4 91 5 104 l1 24 372 -6 c273 -5 374 -10 379
-19z m-2721 -7 c0 -10 -98 -21 -186 -21 -82 0 -83 18 -1 23 131 7 187 7 187
-2z m-270 -10 c0 -6 -4 -12 -9 -15 -14 -9 -208 -14 -222 -5 -16 9 31 18 121
22 36 2 75 4 88 5 12 1 22 -2 22 -7z m-305 -31 c-3 -5 -17 -10 -31 -10 -13 0
-24 5 -24 10 0 6 14 10 31 10 17 0 28 -4 24 -10z m1845 -92 c0 -16 -3 -19 -11
-11 -6 6 -8 16 -5 22 11 17 16 13 16 -11z m1680 -143 c7 -9 15 -13 17 -11 3 3
16 1 29 -4 14 -6 36 -12 50 -14 14 -3 38 -13 53 -22 14 -10 37 -19 50 -20 27
-3 61 -31 61 -50 0 -7 17 -16 38 -20 20 -4 46 -13 57 -20 11 -7 45 -17 75 -23
78 -14 126 -36 152 -71 12 -17 28 -30 36 -30 19 0 159 -67 167 -80 3 -6 -6
-15 -22 -21 -15 -6 -57 -24 -92 -41 -57 -27 -69 -30 -106 -21 -25 6 -52 6 -65
1 -15 -6 -34 -5 -52 3 -31 13 -36 24 -13 33 8 3 15 12 15 21 0 19 24 19 40 0
16 -20 74 -21 67 -1 -3 8 -11 32 -18 54 -7 25 -19 42 -31 45 -23 7 -48 -1 -48
-14 0 -6 -21 -7 -47 -4 -34 4 -53 1 -66 -9 -17 -13 -17 -16 12 -62 16 -27 28
-50 26 -53 -9 -8 -141 -7 -159 2 -10 5 -64 10 -120 12 -70 2 -118 9 -156 23
-30 11 -77 23 -105 27 -27 3 -70 12 -95 19 -25 8 -65 19 -90 26 -25 6 -53 16
-63 21 -10 6 -27 7 -37 4 -17 -5 -19 -1 -17 40 2 38 6 47 25 51 12 4 22 9 22
13 0 4 11 13 25 19 14 7 28 24 33 43 9 38 32 55 58 44 28 -12 124 -12 124 0 0
11 23 36 74 80 32 28 77 33 96 10z m-1870 -150 c-14 -16 -75 -21 -85 -6 -6 11
17 18 64 20 29 1 32 -1 21 -14z m-30 -85 c0 -5 -7 -7 -15 -4 -8 4 -12 10 -9
15 6 11 24 2 24 -11z m1285 14 c23 -9 -1 -23 -27 -16 -15 4 -17 7 -6 13 16 11
13 10 33 3z m2568 -320 c-7 -3 -9 -12 -6 -20 4 -11 -5 -14 -41 -14 -33 0 -46
4 -46 14 0 8 8 17 18 19 23 6 90 7 75 1z m460 -41 c-7 -2 -19 -2 -25 0 -7 3
-2 5 12 5 14 0 19 -2 13 -5z m-110 -10 c-24 -2 -43 -8 -43 -14 0 -5 -4 -9 -10
-9 -5 0 -7 7 -4 15 5 11 19 15 53 13 l46 -1 -42 -4z m142 -24 c11 -16 1 -19
-13 -3 -7 8 -8 14 -3 14 5 0 13 -5 16 -11z m-75 -14 c0 -8 -7 -15 -15 -15 -8
0 -15 7 -15 15 0 8 7 15 15 15 8 0 15 -7 15 -15z"/>
<path d="M3055 2880 c-3 -6 -6 -63 -4 -128 1 -64 -1 -166 -5 -227 -7 -102 1
-152 19 -133 7 7 8 489 1 495 -2 3 -7 -1 -11 -7z"/>
<path d="M4030 2610 c0 -5 5 -10 10 -10 6 0 10 5 10 10 0 6 -4 10 -10 10 -5 0
-10 -4 -10 -10z"/>
<path d="M3636 2461 c-8 -66 2 -207 15 -231 10 -17 11 8 9 170 -1 119 -14 151
-24 61z"/>
<path d="M3061 2274 c0 -11 3 -14 6 -6 3 7 2 16 -1 19 -3 4 -6 -2 -5 -13z"/>
<path d="M3058 2227 c-5 -10 -8 -35 -7 -55 0 -35 1 -35 10 -12 6 13 9 38 7 55
-2 24 -4 26 -10 12z"/>
<path d="M3050 2103 c0 -10 -3 -36 -6 -58 -5 -27 -3 -37 3 -30 14 14 23 94 12
101 -5 3 -9 -3 -9 -13z"/>
<path d="M3242 1850 c0 -14 2 -19 5 -12 2 6 2 18 0 25 -3 6 -5 1 -5 -13z"/>
<path d="M3036 1678 c-8 -32 -6 -159 3 -182 14 -37 24 4 24 96 0 88 -14 133
-27 86z"/>
<path d="M2471 1663 c1 -10 5 -31 9 -48 7 -27 8 -25 9 18 0 26 -3 47 -9 47 -5
0 -9 -8 -9 -17z"/>
<path d="M3237 1583 c-16 -15 -5 -103 13 -103 11 0 19 51 13 83 -5 27 -14 33
-26 20z"/>
<path d="M2472 1550 c0 -14 2 -19 5 -12 2 6 2 18 0 25 -3 6 -5 1 -5 -13z"/>
<path d="M2332 2090 c0 -19 2 -27 5 -17 2 9 2 25 0 35 -3 9 -5 1 -5 -18z"/>
<path d="M3692 971 c-10 -6 -10 -11 3 -21 14 -12 18 -11 26 1 17 28 1 40 -29
20z"/>
<path d="M4412 772 c-13 -4 -17 -52 -4 -51 28 2 38 15 27 35 -5 11 -16 19 -23
16z"/>
<path d="M4092 699 c-14 -22 -10 -35 6 -25 12 7 23 46 13 46 -3 0 -12 -9 -19
-21z"/>
<path d="M2279 8628 c-6 -13 -3 -138 3 -138 4 0 8 32 8 70 0 58 -4 82 -11 68z"/>
<path d="M2250 8230 c-9 -22 -10 -40 -3 -63 l9 -32 13 53 c16 63 2 93 -19 42z"/>
<path d="M3077 8240 c8 -29 25 -37 21 -9 -1 12 -8 24 -15 26 -7 3 -9 -3 -6
-17z"/>
<path d="M5991 7964 c0 -11 3 -14 6 -6 3 7 2 16 -1 19 -3 4 -6 -2 -5 -13z"/>
<path d="M4034 7274 c-10 -38 12 -55 26 -20 5 15 8 32 4 37 -10 17 -24 9 -30
-17z"/>
<path d="M6935 6483 c3 -27 7 -118 11 -203 4 -85 8 -174 9 -197 2 -50 -16 -63
-39 -27 -18 27 -36 32 -36 9 0 -8 4 -15 10 -15 5 0 12 -16 16 -35 7 -40 20
-53 61 -61 28 -6 32 -3 38 26 4 17 4 66 1 108 -3 42 -11 140 -16 217 -10 132
-31 225 -50 225 -5 0 -7 -21 -5 -47z"/>
<path d="M3675 6390 c-3 -5 3 -10 14 -10 11 0 23 5 26 10 3 6 -3 10 -14 10
-11 0 -23 -4 -26 -10z"/>
<path d="M640 3076 c0 -8 5 -18 10 -21 6 -4 8 -10 5 -15 -5 -9 19 -21 51 -25
17 -2 20 1 17 16 -3 10 -10 19 -17 19 -6 0 -5 4 3 9 14 9 12 10 -51 27 -12 4
-18 0 -18 -10z"/>
<path d="M494 2635 c-7 -18 3 -35 21 -35 15 0 24 19 18 38 -6 17 -32 15 -39
-3z"/>
<path d="M397 2544 c-3 -4 -3 -19 0 -35 3 -18 1 -29 -6 -29 -6 0 -11 5 -11 10
0 22 -16 8 -18 -15 -1 -19 3 -25 18 -25 11 0 23 -1 28 -2 4 -2 7 19 7 45 1 47
-6 63 -18 51z"/>
<path d="M277 2392 c-10 -11 -13 -22 -7 -31 4 -8 6 -19 4 -25 -6 -18 12 -37
29 -30 13 5 17 19 17 55 0 53 -14 63 -43 31z"/>
<path d="M640 2141 c0 -5 -9 -11 -20 -14 -14 -3 -20 -14 -20 -31 0 -14 9 -35
20 -46 11 -11 20 -24 20 -30 0 -17 19 -11 30 9 20 38 6 121 -20 121 -6 0 -10
-4 -10 -9z"/>
<path d="M2655 870 c-4 -6 7 -10 25 -10 18 0 29 4 25 10 -3 6 -15 10 -25 10
-10 0 -22 -4 -25 -10z"/>
<path d="M1584 845 c-17 -13 -17 -14 -2 -15 9 0 20 5 23 11 11 17 0 20 -21 4z"/>
<path d="M7192 288 c-21 -21 -15 -50 9 -46 31 4 49 35 29 48 -20 13 -24 12
-38 -2z"/>
<path d="M4939 179 l-24 -21 30 8 c37 9 45 13 45 25 0 16 -26 10 -51 -12z"/>
<path d="M5593 23 c-24 -9 -13 -23 17 -23 32 0 40 14 14 24 -9 3 -16 6 -17 5
-1 0 -8 -3 -14 -6z"/>
</g>
</svg>
